<svg width="384" height="384" viewBox="0 0 384 384" fill="none" xmlns="http://www.w3.org/2000/svg">
<path d="M179.65 384C173.28 383 166.89 382.21 160.54 381.11C132.044 376.277 105.249 364.266 82.68 346.21C46.44 317.42 23.88 280.21 16.6 234.45C8.85 185.63 20 141 48.64 100.79C48.99 100.29 49.31 99.79 49.82 98.95C45.22 94.06 40.65 89.16 36.02 84.3C28.22 76.1 28.39 67.61 36.57 59.81C39.3567 57.1433 42.1733 54.4766 45.02 51.81C51.91 45.44 60.67 45.68 67.32 52.43C69.6 54.74 71.8 57.13 74.03 59.43L80.7 66.43C87.84 61.8 94.58 56.62 102 52.62C111.59 47.41 121.63 43.02 131.59 38.5C135.71 36.63 138.96 37.91 140.31 41.27C141.66 44.63 139.91 47.6 135.58 49.17C110.216 58.231 87.4878 73.4256 69.42 93.4C46.7 118.4 32.32 147.55 27.65 181.06C20.05 235.49 35.31 282.92 73.37 322.54C97.79 348 127.69 364 162.56 369.83C218.69 379.27 267.75 364.36 308.86 325.04C335.62 299.44 352 267.88 357.05 231.12C365.14 172.34 347.05 122.52 303.8 81.97C288.28 67.4 270.09 56.88 250.14 49.46C249.2 49.11 248.24 48.85 247.33 48.46C244.06 46.98 242.72 44.18 243.83 41.23C244.054 40.4743 244.44 39.7764 244.961 39.1849C245.482 38.5934 246.125 38.1223 246.846 37.8045C247.568 37.4867 248.35 37.3297 249.138 37.3445C249.926 37.3592 250.701 37.5454 251.41 37.89C258.67 40.8 266.12 43.47 272.95 47.21C283.51 53 293.62 59.62 304.39 66.21C307.97 62.46 312.18 58.07 316.39 53.66C324.19 45.44 332.6 45.17 340.82 52.91C343.45 55.39 346.12 57.83 348.72 60.35C356.14 67.51 356.35 76.35 349.31 83.8L335.66 98.15C335.46 98.4459 335.289 98.7608 335.15 99.09C335.7 99.97 336.31 101.01 337 101.99C360.92 135.67 372.93 173.28 370.17 214.41C365.42 285.31 330.1 336.55 266.42 367.94C247.97 377.03 228.14 381.84 207.57 383.34C206.727 383.479 205.9 383.7 205.1 384H179.65ZM55.82 88.61L72.14 74.17C67.67 69.42 63.45 64.89 59.14 60.4C57.2 58.4 54.99 58.18 52.89 60.09C49.58 63.09 46.37 66.22 43.16 69.34C41.36 71.09 41.23 73.11 42.93 74.95C47.58 80 52.3 84.89 55.82 88.61ZM312.29 74.51L328.66 88.92C332.49 84.86 337.23 79.92 341.85 74.92C343.54 73.06 343.28 71.03 341.47 69.29C338.33 66.29 335.21 63.21 332 60.29C330.11 58.54 327.88 58.21 326 60.13C321.47 64.65 317.1 69.41 312.29 74.51Z" fill="#A088FF"/>
<path d="M164.68 41.3C162.522 41.3248 160.364 41.2146 158.22 40.97C155.259 40.3776 152.587 38.7976 150.642 36.4885C148.696 34.1795 147.592 31.2783 147.51 28.26C147.403 23.4 147.403 18.5366 147.51 13.67C147.569 10.2671 148.947 7.0202 151.354 4.61367C153.76 2.20714 157.007 0.829065 160.41 0.769961C164.523 0.689961 168.637 0.689961 172.75 0.769961C176.19 0.829961 178.61 3.13996 178.69 6.22996C178.77 9.31996 176.26 11.86 172.62 11.94C169.25 12.02 165.88 12.05 162.52 11.94C159.78 11.85 158.67 13.07 158.73 15.75C158.81 19.24 158.79 22.75 158.73 26.22C158.73 28.66 159.64 29.95 162.23 29.95C182.07 29.95 201.907 29.95 221.74 29.95C224.04 29.95 225.25 28.95 225.25 26.62C225.25 22.88 225.25 19.14 225.25 15.4C225.25 12.81 223.95 11.92 221.5 11.94C213.64 12 205.78 11.94 197.92 11.94C193.67 11.94 191.03 9.66996 191.12 6.20996C191.21 2.74996 193.76 0.769961 197.81 0.759961C206.3 0.759961 214.81 0.699961 223.26 0.759961C225.01 0.746508 226.744 1.08237 228.363 1.74788C229.981 2.41338 231.45 3.39515 232.684 4.63565C233.918 5.87615 234.892 7.35044 235.549 8.97215C236.206 10.5939 236.533 12.3304 236.51 14.08C236.57 18.2 236.51 22.31 236.51 26.43C236.51 35.73 231.38 40.91 221.99 41.16C221.51 41.16 220.99 41.24 220.06 41.32C220.06 44.54 219.88 47.76 220.19 50.93C220.27 51.75 221.77 52.93 222.79 53.11C258.557 60.6366 288.25 78.34 311.87 106.22C313.81 108.5 314.87 110.85 313.3 113.69C311.25 117.44 307 117.51 303.59 114.09C296.72 107.22 290.23 99.88 282.77 93.72C261.62 76.25 237.17 66.14 209.91 62.72C137.21 53.72 70.16 100.59 53.08 169.08C38.91 225.93 54.4 274.8 97.54 314.39C118.25 333.39 143.16 344.5 170.91 348.64C201.784 353.292 233.335 347.796 260.817 332.978C288.3 318.16 310.23 294.821 323.31 266.47C332.904 245.838 337.459 223.222 336.6 200.485C335.741 177.747 329.493 155.539 318.37 135.69C318 135.04 317.64 134.38 317.32 133.69C315.71 130.32 316.52 127.19 319.41 125.62C322.3 124.05 325.59 124.86 327.23 128.33C331.82 138.11 337.03 147.73 340.35 157.95C369.2 246.68 314.15 340.24 222.59 358.6C140 375.18 58.48 322 40.41 239.68C22.55 158.36 71.5 77.22 151.47 55.64C154.95 54.7 158.47 53.86 162.01 53.27C164.01 52.93 164.82 52.21 164.72 50.15C164.58 47.31 164.68 44.46 164.68 41.3ZM208.68 41.4H176.14V50.56H208.7L208.68 41.4Z" fill="#A088FF"/>
<path d="M262.6 259.88C258.87 265.05 255.6 270.02 251.86 274.63C249.44 277.63 246.11 277.72 243.64 275.63C241.17 273.54 240.9 269.96 243.64 267.04C254.92 254.82 256.28 240.22 251.86 225.41C239.77 184.92 226.86 144.68 214.24 104.34C212.69 99.3399 209.24 96.7899 205.02 97.3399C200.55 97.9699 197.7 101.48 197.68 106.72C197.62 119.17 197.68 131.62 197.68 144.41C198.55 144.41 199.13 144.41 199.68 144.41C208.52 144.13 214.22 148.34 216.18 156.86C219.54 171.39 222.79 185.96 226.08 200.51C227.08 204.87 228.14 209.22 229.08 213.6C230.02 217.98 228.51 220.87 225.15 221.6C221.46 222.38 218.97 220.44 217.94 215.94C213.713 197.393 209.487 178.847 205.26 160.3C204.71 157.86 204.06 155.39 200.92 155.78C197.78 156.17 197.69 158.69 197.69 161.2C197.69 197.2 197.63 233.31 197.74 269.36C197.74 280.75 203.13 289.08 213.47 294.04C225.58 299.85 237.72 305.6 249.85 311.38C251.08 311.97 252.37 312.48 253.53 313.18C256.4 314.94 257.34 317.82 256.04 320.55C255.734 321.235 255.293 321.851 254.743 322.362C254.193 322.873 253.546 323.267 252.84 323.522C252.135 323.777 251.385 323.887 250.636 323.845C249.886 323.804 249.153 323.611 248.48 323.28C241.9 320.28 235.42 317.13 228.91 314.02C223.18 311.29 217.53 308.39 211.72 305.84C203.9 302.41 197.12 297.77 192.07 289.96C185.17 301.55 173.26 305.32 162.4 310.61C154.01 314.71 145.57 318.68 137.12 322.66C133 324.6 129.7 323.79 128.12 320.61C126.54 317.43 127.95 314.41 132.21 312.38C144.44 306.52 156.63 300.55 168.97 294.93C180.97 289.45 186.55 280.33 186.49 267.17C186.34 232.49 186.44 197.81 186.44 163.17C186.44 162.3 186.44 161.43 186.44 160.55C186.49 158.23 185.87 156.17 183.27 155.82C180.34 155.42 179.48 157.6 178.95 159.93L174.42 179.93C171.673 192.057 168.917 204.18 166.15 216.3C165.15 220.5 162.63 222.38 159.03 221.65C155.75 220.98 154.1 218.21 155.03 214.08C159.37 194.68 163.7 175.26 168.31 155.92C170.31 147.62 175.72 144.35 186.08 144.43C186.257 143.758 186.374 143.072 186.43 142.38C186.43 130.53 186.49 118.67 186.43 106.82C186.43 101.57 183.6 98.0699 179.14 97.4099C174.96 96.7899 171.44 99.3499 169.88 104.32C164.173 122.46 158.487 140.61 152.82 158.77C152.574 159.734 152.27 160.682 151.91 161.61C150.59 164.61 147.69 165.96 144.91 164.97C144.19 164.756 143.521 164.399 142.944 163.919C142.367 163.439 141.893 162.846 141.552 162.178C141.21 161.509 141.008 160.778 140.958 160.029C140.908 159.28 141.011 158.528 141.26 157.82C144.61 146.76 148.05 135.73 151.49 124.69C153.82 117.21 156.64 109.86 158.49 102.26C162.49 85.4699 181.25 81.4799 191.49 91.1699C191.65 91.3199 191.94 91.3299 192.37 91.4799C194.688 89.2114 197.541 87.564 200.664 86.69C203.788 85.8161 207.081 85.7438 210.24 86.4799C218.24 88.1999 222.99 93.5899 225.39 101.38C236.1 136.07 246.96 170.7 257.69 205.38C260.14 213.33 262.69 221.29 264.41 229.38C265.41 234.43 265.08 239.81 264.96 245.03C264.9 247.71 265.39 248.87 268.3 249.53C279.3 252.04 290.25 254.94 301.22 257.71C301.7 257.83 302.17 258.01 302.64 258.17C306.25 259.42 307.8 261.96 306.98 265.28C306.22 268.37 303.19 270.01 299.62 269.12C287.68 266.147 275.743 263.147 263.81 260.12C263.415 260.001 263.01 259.921 262.6 259.88Z" fill="#A088FF"/>
<path d="M121.45 259.8C109.45 262.8 97.22 265.86 84.93 268.91C80.93 269.91 77.99 268.49 77.14 265.31C76.14 261.78 77.91 259.07 82.14 257.99C93.57 254.99 105.04 252.24 116.45 249.22C117.51 248.93 119.12 247.39 119.04 246.58C117.4 231.19 122.51 217.11 127.15 202.92C129.55 195.6 131.71 188.21 134.06 180.92C134.96 178.12 136.99 176.56 139.99 176.81C141.257 176.849 142.466 177.345 143.395 178.208C144.323 179.07 144.908 180.24 145.04 181.5C145.132 183.104 144.883 184.709 144.31 186.21C140.49 198.56 136.54 210.86 132.75 223.21C129.32 234.36 128.94 245.57 133.5 256.46C135 260.05 137.6 263.25 140.01 266.39C142.83 270.06 143.15 273.22 140.44 275.6C137.73 277.98 134.37 277.6 131.44 273.92C127.92 269.53 125 264.8 121.45 259.8Z" fill="#A088FF"/>
<path d="M303.78 174.29C304.26 173.44 304.78 172.62 305.19 171.79C306.81 168.9 309.19 167.72 312.37 168.89C313.055 169.121 313.685 169.488 314.225 169.969C314.764 170.45 315.201 171.034 315.509 171.688C315.817 172.341 315.99 173.05 316.018 173.772C316.046 174.495 315.927 175.215 315.67 175.89C313.36 181.89 310.86 187.89 308.07 193.72C306.78 196.42 304.17 197.5 301.07 196.23C295.21 193.82 289.32 191.47 283.53 188.9C282.855 188.647 282.238 188.258 281.718 187.759C281.197 187.259 280.784 186.659 280.504 185.995C280.223 185.331 280.08 184.616 280.085 183.895C280.089 183.173 280.241 182.461 280.53 181.8C280.776 181.09 281.163 180.436 281.668 179.88C282.173 179.323 282.785 178.875 283.469 178.562C284.152 178.249 284.891 178.077 285.643 178.058C286.394 178.039 287.142 178.172 287.84 178.45C289.44 178.95 290.98 179.65 293.7 180.71C291.3 174.21 289.57 168.53 287.14 163.17C278.37 143.576 263.71 127.203 245.2 116.33C240.04 113.24 238.59 110.33 240.61 107.01C242.63 103.69 245.92 103.41 251 106.5C276 121.75 293.29 143.17 302.4 171.09C302.7 172.04 303.01 172.98 303.33 173.92C303.36 174 303.48 174.07 303.78 174.29Z" fill="#A088FF"/>
<path d="M77.72 187.1C80.4 178.6 82.52 169.86 85.88 161.64C95.63 137.79 111.99 119.48 134.13 106.34C138.13 103.94 141.38 104.4 143.21 107.57C145.04 110.74 143.81 113.76 139.87 116.15C114.41 131.55 98 153.59 91 182.57C90.48 184.74 90.26 187.01 89.57 189.12C88.57 192.12 86.43 193.61 83.25 193.12C80.07 192.63 78.64 190.53 77.72 187.1Z" fill="#A088FF"/>
</svg>
