<svg width="385" height="384" viewBox="0 0 385 384" fill="none" xmlns="http://www.w3.org/2000/svg">
<path d="M102.69 384C97.9499 381.89 94.94 378.11 92.3 373.79C88.02 366.79 83.4299 359.95 79.0999 352.96C78.335 351.611 77.214 350.499 75.8596 349.744C74.5052 348.989 72.9694 348.621 71.42 348.68C61.42 348.39 51.48 347.87 41.52 347.26C32.38 346.69 26.19 336.43 30.61 328.26C38.43 313.81 46.85 299.68 55.14 285.48C55.5126 284.825 56.0133 284.252 56.6122 283.795C57.211 283.338 57.8957 283.007 58.6255 282.82C59.3553 282.633 60.1151 282.596 60.8598 282.709C61.6045 282.822 62.3188 283.085 62.9599 283.48C65.6899 285.12 66.4599 288.37 64.5999 291.65C58.2499 302.79 51.8 313.89 45.39 325C44.03 327.37 42.64 329.74 41.29 332.12C39.94 334.5 40.98 335.79 43.35 335.98C47.7 336.32 52.07 336.48 56.43 336.52C56.887 336.45 57.3231 336.282 57.7082 336.026C58.0934 335.77 58.4182 335.434 58.66 335.04C72.5467 311.14 86.3933 287.213 100.2 263.26L89.1999 249.26C87.4899 252.16 85.8499 254.9 84.1999 257.65C82.1199 261.2 80.09 264.77 78 268.32C75.54 272.51 72.3899 273.78 69.2199 271.91C66.2199 270.14 65.7699 266.81 68.0999 262.74C72.2499 255.51 76.32 248.22 80.67 241.1C82.1 238.76 81.98 237.1 80.74 234.7C70.573 215.46 65.2493 194.031 65.23 172.27C65.13 137.58 65.23 102.9 65.17 68.27C65.17 59.97 68.8299 54.27 76.3199 50.92C91.4399 44.18 106.54 37.4 121.73 30.84C123.6 30.03 126.33 29.74 128.04 30.53C129.51 31.21 131.04 33.95 130.84 35.53C130.607 36.6226 130.147 37.6543 129.491 38.5585C128.835 39.4627 127.996 40.2195 127.03 40.78C116.36 45.85 105.5 50.52 94.6999 55.32C90.4899 57.18 86.35 59.24 82.05 60.85C77.92 62.39 76.4299 65.07 76.4499 69.4C76.5499 103.08 76.45 136.77 76.53 170.4C76.4513 189.542 80.7149 208.453 89 225.71C101.26 251.16 120 270.35 144.92 283.57C159.55 291.33 174.22 299.01 188.85 306.75C191.23 308.01 193.52 309.03 196.23 307.56C214.44 297.77 233.23 288.98 250.75 278.05C284.15 257.17 303.36 226.5 308.75 187.39C309.565 181.337 309.976 175.237 309.98 169.13C310.1 136.07 309.98 103.01 310.12 69.95C310.12 65.16 308.46 62.5 304.02 60.54C268.687 45.02 233.43 29.3533 198.25 13.54C196.72 12.7588 195.028 12.3514 193.31 12.3514C191.593 12.3514 189.899 12.7588 188.37 13.54C176.05 19.21 163.63 24.65 151.2 30.08C146.3 32.22 141.82 29.57 142.57 24.86C142.783 23.8744 143.2 22.9443 143.794 22.1296C144.388 21.315 145.147 20.6338 146.02 20.13C159.68 13.7967 173.427 7.65001 187.26 1.69001C192.1 -0.409989 196.95 0.480011 201.72 2.61001C229.1 14.85 256.497 27.0367 283.91 39.17L310.18 50.82C317.68 54.16 321.39 59.87 321.37 68.15C321.31 102.59 321.37 137.02 321.37 171.45C321.445 193.465 316.108 215.161 305.83 234.63C304.48 237.22 304.74 238.99 306.12 241.36C322.39 269.36 338.53 297.44 354.77 325.46C357.52 330.21 358.47 334.96 355.77 339.98C354.772 342.074 353.218 343.854 351.279 345.127C349.339 346.4 347.088 347.117 344.77 347.2C334.93 347.75 325.09 348.31 315.25 348.6C313.699 348.541 312.162 348.91 310.806 349.664C309.45 350.419 308.328 351.531 307.56 352.88C303.23 359.88 298.64 366.7 294.35 373.71C291.72 378.03 288.69 381.81 283.96 383.92H276.47C271.47 381.69 268.58 377.54 265.95 372.92C253.56 351.19 240.95 329.56 228.49 307.92C227.83 306.78 227.11 305.68 226.39 304.52C218.39 308.71 210.77 312.58 203.27 316.74C196.57 320.46 190.17 320.5 183.46 316.74C175.89 312.49 168.12 308.62 160.33 304.52C159.52 305.82 158.84 306.85 158.23 307.92C145.72 329.58 133.16 351.22 120.76 372.92C118.13 377.54 115.23 381.66 110.24 383.92L102.69 384ZM286.53 263.11C286.624 263.452 286.744 263.787 286.89 264.11C300.45 287.63 314.047 311.133 327.68 334.62C328.29 335.62 330.16 336.42 331.49 336.49C334.59 336.64 337.71 336.22 340.83 336.15C346.49 336.01 347.03 335.15 344.28 330.39C329.28 304.39 314.28 278.39 299.28 252.39C298.73 251.45 298.1 250.56 297.36 249.39L286.53 263.11ZM70.63 337.35C79.03 337.15 84.78 340.3 88.88 346.98C100.97 325.98 112.83 305.48 124.68 284.98L108.44 271.87C95.8999 293.57 83.49 315.07 70.63 337.35ZM261.91 285L297.78 347.1C301.88 340.01 307.87 337.3 315.9 337.26L278.15 271.89C272.58 276.36 267.46 280.5 261.91 285ZM134.53 291C133.79 292.24 133.13 293.28 132.53 294.34C122.53 311.673 112.503 329.033 102.45 346.42C100.28 350.19 96.45 354.06 96.53 357.77C96.66 361.66 100.62 365.45 103 369.22C106.07 374.1 106.91 374.05 109.87 368.92C122.637 346.82 135.4 324.717 148.16 302.61C148.76 301.56 149.29 300.46 149.97 299.18L134.53 291ZM236.53 299.28C241.86 308.53 247.07 317.57 252.29 326.6C260.63 341.053 268.963 355.503 277.29 369.95C279.47 373.71 280.65 373.73 283.01 370.12C285.12 366.88 287.01 363.53 289.28 360.38C290.56 358.59 290.44 357.24 289.35 355.38C281.61 342.16 274 328.88 266.35 315.62L252.08 290.97L236.53 299.28Z" fill="#A088FF"/>
<path d="M284.85 166.68C284.85 115.27 252.85 77.4699 208.3 69.6799C160.06 61.2299 111.58 94.7599 103.43 142.86C96.97 181.03 109.77 211.86 140.72 235.2C141.32 235.65 141.97 236.04 142.54 236.52C145.16 238.7 145.7 241.96 143.88 244.52C142.06 247.08 138.74 247.99 136.01 245.75C129.19 240.15 121.89 234.86 116.13 228.28C66.75 171.91 91.1299 84.8099 162.47 61.8699C220.63 43.1699 283.14 80.5599 294.47 140.87C297.048 154.334 296.915 168.177 294.078 181.589C291.242 195.001 285.758 207.713 277.949 218.98C270.141 230.247 260.163 239.844 248.6 247.209C237.038 254.573 224.122 259.557 210.61 261.87C193.711 264.828 176.337 263.427 160.13 257.8C156.94 256.7 155.43 254.67 155.82 251.33C155.925 250.064 156.494 248.882 157.416 248.01C158.339 247.137 159.551 246.635 160.82 246.6C162.33 246.45 163.95 247.19 165.49 247.6C193.25 255.69 219.66 252.68 243.77 236.53C270.73 218.4 284.08 192.53 284.85 166.68Z" fill="#A088FF"/>
<path d="M151.39 203.13C152.57 195.98 154.04 187.78 155.2 179.54C155.266 178.735 155.17 177.926 154.92 177.158C154.669 176.391 154.268 175.681 153.74 175.07C148.8 169.96 143.64 165.07 138.52 160.14C134.21 156 132.21 151.14 134.31 145.31C136.31 139.64 140.79 137.09 146.52 136.31C153.42 135.31 160.29 134.18 167.21 133.41C169.6 133.14 170.67 132 171.59 130.07C174.59 123.79 177.77 117.57 180.78 111.29C183.32 106.02 187.3 102.7 193.26 102.69C199.22 102.68 203.26 105.93 205.77 111.22C208.84 117.62 211.89 124.03 215.24 130.22C215.696 130.952 216.292 131.587 216.994 132.088C217.696 132.589 218.49 132.946 219.33 133.14C226.33 134.39 233.33 135.28 240.33 136.3C246.06 137.14 250.41 139.83 252.33 145.56C254.25 151.29 252.26 156.03 248.1 160.07C243.1 164.93 237.97 169.69 233.1 174.73C231.877 176.13 231.256 177.955 231.37 179.81C232.24 186.71 233.43 193.58 234.74 200.42C235.83 206.17 234.74 211.15 230 214.8C225.26 218.45 219.92 218.35 214.6 215.46C208.37 212.08 202.12 208.72 195.73 205.64C194.938 205.311 194.088 205.142 193.23 205.142C192.372 205.142 191.522 205.311 190.73 205.64C183.9 208.95 177.32 212.75 170.5 216.08C161.39 220.58 151.31 214.26 151.39 203.13ZM223.86 204.29C222.52 196.44 221.4 188.93 219.93 181.5C218.81 175.84 220.21 171.24 224.37 167.28C229.52 162.39 234.58 157.4 239.61 152.37C240.335 151.449 240.944 150.441 241.42 149.37C240.29 148.77 239.22 147.83 238.03 147.63C231.03 146.49 224.03 145.37 217.03 144.55C214.536 144.351 212.141 143.484 210.098 142.039C208.054 140.594 206.439 138.626 205.42 136.34C202.18 129.76 198.97 123.17 195.66 116.62C195.2 115.72 194.06 114.34 193.55 114.47C192.457 114.849 191.554 115.638 191.03 116.67C187.7 123.21 184.51 129.82 181.25 136.39C180.258 138.62 178.692 140.548 176.712 141.976C174.732 143.404 172.409 144.282 169.98 144.52C162.98 145.41 155.98 146.46 148.98 147.57C147.716 147.92 146.498 148.417 145.35 149.05C146.02 150.28 146.44 151.75 147.35 152.7C152.27 157.7 157.28 162.52 162.35 167.35C166.48 171.3 167.87 175.92 166.73 181.58C165.34 188.58 164.31 195.58 163.21 202.58C163.174 203.621 163.272 204.663 163.5 205.68C164.65 205.54 165.96 205.68 166.94 205.2C172.83 202.25 178.81 199.4 184.46 196.03C190.58 192.38 196.26 192.45 202.36 196.03C208.15 199.43 214.22 202.33 220.17 205.45C221.89 206.32 223.42 206.52 223.86 204.29Z" fill="#A088FF"/>
</svg>
