<svg width="33" height="32" viewBox="0 0 33 32" fill="none" xmlns="http://www.w3.org/2000/svg">
<path d="M16.8487 22.4612C17.4201 21.412 17.891 20.3492 18.5332 19.3983C21.4612 15.0555 25.619 12.8818 30.8144 12.5938C31.747 12.5435 32.1858 13.0098 32.1515 13.9652C31.9824 20.9709 26.8464 26.7972 19.891 27.6795C16.8898 28.0566 13.8384 28.1366 10.9287 26.9938C5.53668 24.9046 2.42125 20.9755 1.64182 15.2315C1.57416 14.7824 1.53142 14.3299 1.51382 13.876C1.49782 13.0166 1.97096 12.5526 2.82582 12.596C6.38239 12.7743 9.59611 13.86 12.3367 16.2052C14.2178 17.8002 15.6805 19.831 16.5972 22.1206C16.6301 22.2049 16.669 22.2866 16.7138 22.3652C16.7367 22.3903 16.7847 22.4155 16.8487 22.4612ZM16.0213 26.2143C15.8567 25.444 15.7584 24.7698 15.5641 24.1206C13.9641 18.6075 9.47496 14.8795 3.68982 14.244C3.26696 14.196 3.07496 14.3172 3.14582 14.756C3.21668 15.1949 3.26468 15.6109 3.35382 16.0338C4.28868 20.468 6.97668 23.4646 11.0498 25.2886C12.6094 25.9895 14.314 26.3069 16.0213 26.2143ZM17.7058 26.2303C18.0395 26.2303 18.2635 26.2303 18.4875 26.2303C21.443 26.0978 24.0007 24.9663 26.2178 23.06C28.6623 20.9998 30.2024 18.064 30.5081 14.8818C30.5561 14.4589 30.547 14.1732 29.9664 14.2418C26.5378 14.6509 23.6052 16.0155 21.235 18.5458C19.2258 20.6852 18.083 23.2178 17.7058 26.2303Z" fill="#A791FB"/>
<path d="M21.2966 13.933C20.4486 10.8976 19.1023 8.1867 16.8486 5.88956C14.5858 8.17527 13.2578 10.8793 12.3869 13.9376C12.0026 13.7106 11.6331 13.4594 11.2806 13.1856C11.2125 13.1087 11.163 13.0171 11.1361 12.918C11.1091 12.8189 11.1054 12.7149 11.1252 12.6141C12.0492 9.55876 13.7083 6.77657 15.9572 4.51127C16.5423 3.91927 17.1526 3.92156 17.7446 4.52499C19.9815 6.80391 21.6474 9.57969 22.6063 12.6256C22.6169 12.7356 22.6017 12.8465 22.5621 12.9496C22.5224 13.0528 22.4593 13.1453 22.3778 13.2198C22.0344 13.4824 21.6731 13.7207 21.2966 13.933Z" fill="#A791FB"/>
</svg>
