<svg width="32" height="32" viewBox="0 0 32 32" fill="none" xmlns="http://www.w3.org/2000/svg">
<g clip-path="url(#clip0_135_5)">
<path d="M3.37424 14.921C2.79877 15.4255 2.24439 15.9357 1.66701 16.4287C1.06084 16.9485 0.61006 16.9831 0.234086 16.5668C-0.141888 16.1506 -0.0613217 15.6518 0.560186 15.1051C3.33651 12.6549 6.11412 10.2085 8.893 7.76596L15.1771 2.22034C15.9444 1.54128 16.2245 1.53936 17.0071 2.22034C21.7925 6.43278 26.5766 10.6465 31.3594 14.8615C31.5512 15.0361 31.8524 15.1953 31.9061 15.4101C31.9962 15.7803 32.0672 16.2695 31.8965 16.5611C31.6548 16.9716 31.1599 16.9562 30.7705 16.6301C30.1029 16.0642 29.4488 15.4792 28.6604 14.7963C28.6355 15.2145 28.6048 15.483 28.6048 15.7554C28.6048 19.0023 28.6048 22.2505 28.6048 25.5C28.6048 28.4637 26.7882 30.2803 23.8245 30.2822H8.26957C5.44785 30.2822 3.591 28.4426 3.58332 25.6228C3.58332 22.3273 3.58332 19.0298 3.58332 15.7343V14.9804L3.37424 14.921ZM26.9321 19.7722C26.9321 17.854 26.911 15.9511 26.9455 14.0405C26.9601 13.7949 26.9154 13.5495 26.8153 13.3248C26.7151 13.1001 26.5624 12.9028 26.37 12.7495C23.1608 9.9278 19.9535 7.10416 16.7789 4.24599C16.259 3.77603 15.9483 3.77411 15.4361 4.24599C12.6892 6.72435 9.97872 9.25451 7.10904 11.5832C5.66653 12.7534 5.12367 13.9791 5.21574 15.8206C5.37495 19.0145 5.24643 22.2199 5.26562 25.4214C5.27713 27.5123 6.38203 28.6018 8.4614 28.6248C9.05797 28.6248 9.65454 28.6344 10.253 28.6248C11.8432 28.5961 11.6821 28.9145 11.6879 27.1766C11.6879 24.6925 11.6879 22.2064 11.6879 19.7223C11.6879 18.6385 12.2058 17.9345 13.115 17.9134C15.0966 17.8655 17.08 17.8712 19.0616 17.9134C19.8672 17.9307 20.4043 18.533 20.4887 19.3463C20.5233 19.7012 20.5309 20.0618 20.5309 20.4186C20.5309 22.9277 20.5444 25.4348 20.5309 27.9439C20.5309 28.4656 20.6786 28.667 21.2253 28.6421C22.0828 28.5999 22.9517 28.6421 23.8054 28.6287C25.8272 28.5999 26.9359 27.4777 26.9436 25.4463C26.9398 23.5473 26.9321 21.6597 26.9321 19.7722ZM13.4929 19.6053C13.4335 19.7051 13.4104 19.7242 13.4104 19.7453C13.3925 22.5587 13.3759 25.3722 13.3606 28.1856C13.3606 28.5942 13.6119 28.621 13.936 28.6191C15.321 28.6191 16.706 28.5903 18.089 28.6191C18.6491 28.6344 18.8295 28.481 18.8218 27.9036C18.7911 25.3504 18.8103 22.7953 18.8064 20.2402C18.8064 20.035 18.7719 19.8297 18.7508 19.5938L13.4929 19.6053Z" fill="#BFBBCE"/>
</g>
<defs>
<clipPath id="clip0_135_5">
<rect width="32" height="28.5798" fill="white" transform="translate(0 1.71008)"/>
</clipPath>
</defs>
</svg>
