<svg width="38" height="35" viewBox="0 0 38 35" fill="none" xmlns="http://www.w3.org/2000/svg">
<path d="M16.742 18.7574C16.742 18.7574 15.9338 13.8928 8.69252 12.7261C8.69252 12.7261 7.52268 16.5998 9.15861 20.1526" stroke="#A791FB" stroke-width="1.64288" stroke-miterlimit="10" stroke-linecap="round"/>
<path d="M14.0787 20.1586L11.3531 17.0535" stroke="#A791FB" stroke-width="1.64288" stroke-miterlimit="10" stroke-linecap="round"/>
<path d="M21.9893 19.0661C21.9893 19.0661 22.8509 13.8928 30.0922 12.7261C30.0922 12.7261 31.3917 16.2943 29.7558 19.847" stroke="#A791FB" stroke-width="1.64288" stroke-miterlimit="10" stroke-linecap="round"/>
<path d="M25.5889 19.1586L27.4378 17.0535" stroke="#A791FB" stroke-width="1.64288" stroke-miterlimit="10" stroke-linecap="round"/>
<path d="M28.0273 3.50317C25.6237 3.99119 23.4569 5.28079 21.8818 7.16086C20.3819 9.00727 19.6129 11.3406 19.7211 13.7169C19.7211 13.7169 23.493 12.8774 25.737 10.1241C27.981 7.37076 28.0273 3.50317 28.0273 3.50317Z" fill="#A791FB" fill-opacity="0.7"/>
<path d="M28.0273 3.50317C25.6237 3.99119 23.4569 5.28079 21.8818 7.16086C20.3819 9.00727 19.6129 11.3406 19.7211 13.7169C19.7211 13.7169 23.493 12.8774 25.737 10.1241C27.981 7.37076 28.0273 3.50317 28.0273 3.50317Z" stroke="#A791FB"/>
<path d="M11.3563 3.50317C13.7596 3.98999 15.9257 5.27987 17.4988 7.16086C18.9974 9.00797 19.7662 11.3408 19.6594 13.7169C19.6594 13.7169 15.8845 12.8774 13.6405 10.1241C11.3965 7.37076 11.3563 3.50317 11.3563 3.50317Z" fill="#A791FB" fill-opacity="0.7"/>
<path d="M11.3563 3.50317C13.7596 3.98999 15.9257 5.27987 17.4988 7.16086C18.9974 9.00797 19.7662 11.3408 19.6594 13.7169C19.6594 13.7169 15.8845 12.8774 13.6405 10.1241C11.3965 7.37076 11.3563 3.50317 11.3563 3.50317Z" stroke="#A791FB"/>
<path d="M19.7211 0.546143C18.1672 2.44174 17.3031 4.80879 17.2703 7.25963C17.2686 9.63962 18.1407 11.9374 19.7211 13.7169C19.7211 13.7169 22.1194 10.6827 22.1194 7.13C22.1194 3.57725 19.7211 0.546143 19.7211 0.546143Z" fill="#A791FB"/>
<path d="M19.7211 0.546143C18.1672 2.44174 17.3031 4.80879 17.2703 7.25963C17.2686 9.63962 18.1407 11.9374 19.7211 13.7169C19.7211 13.7169 22.1194 10.6827 22.1194 7.13C22.1194 3.57725 19.7211 0.546143 19.7211 0.546143Z" stroke="#A791FB"/>
<path d="M19.6718 13.717V18.1063" stroke="#A791FB" stroke-width="1.64288" stroke-miterlimit="10" stroke-linecap="round"/>
<path d="M18.7704 22.4246C18.7704 22.4246 18.8692 25.4588 21.32 25.9866C22.0594 26.1298 22.8217 26.1046 23.55 25.9127C24.2784 25.7209 24.9541 25.3674 25.5271 24.8785" stroke="#A791FB" stroke-width="1.64288" stroke-miterlimit="10" stroke-linecap="round"/>
<path d="M21.3199 25.9739C21.3199 25.9739 19.8044 28.721 21.3199 30.1224" stroke="#A791FB" stroke-width="1.64288" stroke-miterlimit="10" stroke-linecap="round"/>
<path d="M8.9425 28.6161C8.9425 28.6161 13.1465 29.897 14.0787 25.9739" stroke="#A791FB" stroke-width="1.64288" stroke-miterlimit="10" stroke-linecap="round"/>
<path d="M12.4735 28.3293C12.4735 28.3293 15.5972 29.5486 14.7792 33.4038" stroke="#A791FB" stroke-width="1.64288" stroke-miterlimit="10" stroke-linecap="round"/>
<path d="M29.0304 26.0913C29.0304 26.0913 26.4593 28.965 29.0304 31.4189" stroke="#A791FB" stroke-width="1.64288" stroke-miterlimit="10" stroke-linecap="round"/>
<path d="M6.72317 33.4036H1.0005C1.0005 33.4036 0.892464 29.678 3.86183 29.1996C3.86183 29.1996 4.26927 26.045 6.72317 25.3443C6.8078 24.3006 7.17997 23.3007 7.79839 22.4556C8.4168 21.6105 9.25727 20.9533 10.2265 20.5569C13.6219 19.1556 15.3658 21.0631 15.3658 21.0631C15.3658 21.0631 16.5326 18.4549 18.9865 18.5722C21.4404 18.6895 22.0207 20.3223 22.0207 20.3223C22.0207 20.3223 26.2278 17.6369 29.9627 20.3223C33.6975 23.0077 32.5338 25.974 32.5338 25.974C32.5338 25.974 35.6884 26.616 36.3891 29.0607C37.0898 31.5053 35.2192 33.382 35.2192 33.382H28.6724" stroke="#A791FB" stroke-width="1.64288" stroke-miterlimit="10" stroke-linecap="round"/>
</svg>
