<svg width="385" height="384" viewBox="0 0 385 384" fill="none" xmlns="http://www.w3.org/2000/svg">
<path d="M384.35 350.32C383.87 351.42 383.35 352.5 382.93 353.63C381.271 358.37 378.171 362.473 374.065 365.365C369.959 368.258 365.052 369.794 360.03 369.76H15.71C8.08005 369.76 2.15002 365.1 1.18002 358.42C0.0600168 350.73 4.18002 344.83 12.18 342.75C20 340.75 27.86 338.86 35.69 336.85C42.7352 335.082 49.2041 331.523 54.47 326.52C75.01 307.033 95.55 287.54 116.09 268.04C119.212 265.157 121.207 261.258 121.72 257.04C123.03 247.62 126.43 239.04 132.72 231.71C133.875 230.255 134.88 228.687 135.72 227.03C151.453 198.743 167.167 170.443 182.86 142.13C189.245 130.225 198.058 119.793 208.73 111.51C233.27 92.7701 267.32 100.51 281.05 128.18C295.28 156.7 309 185.44 323 214.1C332.08 232.767 341.157 251.46 350.23 270.18C350.72 271.18 351.23 272.18 351.7 273.18C353.47 277.02 352.7 280.39 349.7 281.87C346.7 283.35 343.38 281.97 341.54 278.22C337.32 269.61 333.16 260.98 328.99 252.36C321.123 236.12 313.26 219.88 305.4 203.64C304.87 202.56 304.27 201.51 303.54 200.12L268 221.21L271.78 226.9C292.8 258.707 313.8 290.53 334.78 322.37C336.215 324.379 337.235 326.653 337.78 329.06C338.78 334.84 335.7 339.22 329.67 341.14C320.67 343.99 311.67 346.73 302.6 349.53C301.41 349.9 299.92 349.99 299.14 350.78C298.04 351.87 296.72 353.61 296.89 354.88C297.06 356.15 298.8 357.42 300.08 358.39C300.66 358.82 301.78 358.55 302.65 358.55C321.237 358.55 339.823 358.55 358.41 358.55C366.15 358.55 371.54 354.62 372.55 347.47C372.83 344.284 372.235 341.083 370.83 338.21C366.17 328.16 360.95 318.37 356.25 308.34C355.334 306.249 355.21 303.896 355.9 301.72C356.42 300.33 359.16 298.72 360.58 298.98C361.68 299.214 362.722 299.668 363.643 300.314C364.564 300.96 365.345 301.785 365.94 302.74C372.25 315.26 378.2 327.96 384.27 340.59L384.35 350.32ZM169.76 358.32H285.38C285.63 345.25 288 342.17 300.55 338.32C305.9 336.67 311.23 334.97 316.55 333.32L326.32 330.22L239.58 200.61C239.06 202.17 238.72 203.1 238.43 204.05C228.603 235.843 208.603 258.75 178.43 272.77C176.223 273.793 174.196 275.167 172.43 276.84C160.9 288 149.76 299.63 137.93 310.5C128.6 319.08 118.46 326.8 108.56 335.01C112.9 346.88 121.11 354.56 133.43 356.86C146.5 359.29 157.59 355.02 165.8 344.4C170.8 337.89 175.3 330.96 180.3 324.4C186.16 316.76 189.57 308.63 187.61 298.74C187.436 297.972 187.427 297.176 187.585 296.405C187.742 295.634 188.061 294.905 188.522 294.266C188.983 293.628 189.574 293.095 190.256 292.702C190.938 292.31 191.697 292.067 192.48 291.99C195.48 291.6 198.04 293.6 198.73 297.07C200.73 306.91 199.36 316.37 193.79 324.66C186.1 336.15 177.76 347.17 169.76 358.31V358.32ZM203.6 129.92L261.51 211.81L298.64 189.72C288.9 169.89 279.69 150.31 269.7 131.15C263.77 119.77 253.56 113.84 240.7 112.88C225.38 111.73 214.23 119.72 203.6 129.92ZM35.52 358.55C41.38 358.55 47.25 358.43 53.1 358.6C56.8567 358.733 60.5318 357.484 63.43 355.09C79.53 342.52 95.84 330.2 111.83 317.48C131.16 302.11 150.07 286.2 165.63 266.85C170.144 261.245 173.962 255.114 177 248.59C180.27 241.5 177.45 234.99 170.24 232.05C166.379 230.424 162.162 229.824 158 230.31C144.93 232.31 135.69 242.03 133.66 256.04C132.28 265.57 128.01 272.87 121 279.36C101.88 297.05 83.1 315.1 64.26 333.1C56.43 340.58 47.5 345.89 36.9 348.34C29.9 349.96 22.9 351.67 15.9 353.56C14.59 353.92 13.57 355.32 12.41 356.24C13.76 357.01 15.08 358.4 16.41 358.45C22.8 358.69 29.17 358.55 35.52 358.55ZM197 140.34L153.13 219.34C164.4 217.4 174.06 218.84 182.13 226.34C190.61 234.27 191.52 243.84 187.3 254.71C187.985 254.414 188.653 254.08 189.3 253.71C211.45 238.07 225 216.8 230 190.11C230.135 188.425 229.678 186.746 228.71 185.36C224.71 179.36 220.46 173.51 216.29 167.62L197 140.34ZM78.21 358.27H109.87L98.5301 342.68L78.21 358.27Z" fill="#A088FF"/>
<path d="M87.61 140.69C79.75 140.69 72.04 140.46 64.35 140.75C57.05 141.03 51.09 138.45 45.53 133.96C40.9187 130.189 36.065 126.725 31 123.59C24.38 119.59 20 114.2 17.89 106.67C16.1192 100.344 13.9721 94.1298 11.46 88.0601C10.033 84.812 9.29614 81.3029 9.29614 77.7551C9.29614 74.2073 10.033 70.6982 11.46 67.4501C13.9694 61.3817 16.1198 55.171 17.9 48.8501C20.04 41.1501 24.6 35.7801 31.38 31.7801C36.0226 29.1524 40.3794 26.0491 44.38 22.5201C51.59 15.8801 59.85 14.1001 69.25 15.1601C73.3234 15.6255 77.4366 15.6255 81.51 15.1601C91.06 14.0301 99.42 15.8901 106.68 22.6801C110.36 26.0285 114.429 28.9226 118.8 31.3001C122.616 33.305 125.931 36.1443 128.499 39.6068C131.066 43.0694 132.82 47.0662 133.63 51.3001C134.729 56.1381 136.377 60.8351 138.54 65.3001C142.54 73.6501 142.54 81.6501 138.7 90.0601C136.344 95.392 134.438 100.911 133 106.56C131.214 113.499 126.771 119.458 120.63 123.15C114.78 126.89 109.22 131.09 103.63 135.28C98.86 138.94 93.59 141.05 87.61 140.69ZM63.43 26.2001L62.93 25.2001C59.7 26.8301 56.28 28.2001 53.29 30.1501C47.49 33.9901 42.06 38.3701 36.23 42.1501C32.5328 44.4938 29.8576 48.1477 28.74 52.3801C26.85 58.6601 24.74 64.9101 22.27 70.9701C21.3264 73.0568 20.8284 75.3174 20.8077 77.6074C20.7871 79.8975 21.2442 82.1667 22.15 84.2701C24.7 90.5701 26.78 97.0801 28.85 103.57C29.8525 107.315 32.1481 110.585 35.33 112.8C41.71 117.113 47.9834 121.577 54.15 126.19C57.56 128.73 61.15 129.43 65.35 129.24C72.05 128.94 78.79 128.9 85.48 129.24C89.7115 129.628 93.9334 128.403 97.3 125.81C103.033 121.437 108.897 117.25 114.89 113.25C118.279 111.134 120.77 107.845 121.89 104.01C124.05 97.0101 126.51 90.1301 129.15 83.3201C130.625 79.7393 130.625 75.7209 129.15 72.1401C126.53 65.3201 124.08 58.4201 121.91 51.4401C120.821 47.7319 118.436 44.5381 115.19 42.4401C109.02 38.2601 103.19 33.5901 96.91 29.5901C94.1523 27.7602 90.985 26.6403 87.69 26.3301C79.59 25.9001 71.5 26.2001 63.43 26.2001Z" fill="#A088FF"/>
<path d="M75.78 38.18C97.54 38.18 115.78 56.12 116.04 77.65C116.3 99.18 97.45 117.52 75.33 117.49C53.46 117.49 34.84 99.19 34.86 77.77C34.88 56.1 53.45 38.13 75.78 38.18ZM104.49 77.83C104.49 62.65 91.13 49.51 75.59 49.41C60.05 49.31 46.25 62.79 46.41 77.94C46.57 93.09 60.09 106.24 75.52 106.17C90.95 106.1 104.48 93 104.49 77.83Z" fill="#A088FF"/>
</svg>
